<svg width="1573" height="286" viewBox="0 0 1573 286" fill="none" xmlns="http://www.w3.org/2000/svg">
<g filter="url(#filter0_f_3074_551)">
<path d="M3.06445 275.645L98.2856 12.0619H165.39L266.235 275.645H201.754L168.389 185.779H97.5358L67.5449 275.645H3.06445ZM163.516 141.41L139.148 91.7761C135.024 83.1279 137.274 71.0956 137.274 61.3193H127.152C127.152 71.0956 129.401 83.1279 125.652 91.7761L101.66 141.41H163.516Z" fill="white"/>
<path d="M343.3 3.4136V102.68C343.3 113.961 335.802 126.745 332.054 137.649L341.801 141.034C345.55 130.129 347.049 114.713 355.297 106.817C368.792 92.9042 387.912 82.3759 413.029 82.3759C465.888 82.3759 504.501 129.377 506.376 182.395C508.625 238.044 468.887 282.038 412.654 282.038C387.537 282.038 368.043 273.389 354.547 258.725C346.674 250.829 345.924 235.036 342.176 224.508L332.428 227.516C336.177 238.42 343.3 251.205 343.3 262.485V276.021L284.443 275.645V3.0376L343.3 3.4136ZM402.532 227.14C430.649 227.14 447.519 208.715 447.519 183.523C447.519 158.33 430.649 137.273 402.532 137.273C374.416 137.273 357.546 158.33 357.546 183.523C357.546 208.715 374.416 227.14 402.532 227.14Z" fill="white"/>
<path d="M687.138 102.68V3.4136L746.37 3.0376V275.645L687.138 276.021V262.485C687.138 251.205 694.636 238.42 698.01 227.516L688.263 224.508C684.514 235.036 683.764 250.829 676.267 259.101C662.396 273.389 643.277 282.038 618.159 282.038C562.301 282.038 522.188 238.044 524.063 182.395C526.312 129.377 565.3 82.3759 618.159 82.3759C642.902 82.3759 662.021 92.9042 675.517 106.817C683.389 114.713 684.889 130.129 688.638 141.034L698.385 137.649C694.636 126.745 687.138 113.961 687.138 102.68ZM628.656 227.14C656.398 227.14 673.268 208.715 673.268 183.523C673.268 158.33 656.398 137.273 628.656 137.273C600.914 137.273 583.295 158.33 583.295 183.523C583.295 208.715 600.914 227.14 628.656 227.14Z" fill="white"/>
<path d="M777.161 182.395C777.161 118.849 821.022 82.3759 891.126 82.3759C960.855 82.3759 1004.72 122.985 1004.72 182.395C1004.72 241.804 960.855 282.038 891.126 282.038C821.022 282.038 777.161 245.941 777.161 182.395ZM840.892 182.395C840.892 206.083 852.513 224.508 890.751 224.508C928.99 224.508 940.986 206.083 940.986 182.395C940.986 158.706 928.99 139.53 890.751 139.53C852.513 139.53 840.892 158.706 840.892 182.395Z" fill="white"/>
<path d="M1104.9 97.0403C1118.77 86.512 1136.01 82.3759 1158.13 82.3759C1195.99 82.3759 1224.86 104.185 1224.86 147.05V276.021H1165.63V189.915C1165.63 157.202 1154.76 142.914 1131.51 142.914C1106.02 142.914 1085.03 157.578 1085.03 189.915V276.021H1025.8V88.016H1085.03V89.5201C1085.03 107.569 1075.66 128.625 1069.28 145.546L1079.03 149.306C1085.4 132.385 1090.65 107.945 1104.9 97.0403Z" fill="white"/>
<path d="M1378.23 282.038C1295.76 282.038 1250.77 236.916 1250.77 180.891C1250.77 124.865 1299.51 82.3759 1368.49 82.3759C1439.34 82.3759 1483.2 129.001 1482.83 181.643C1482.83 185.779 1482.83 194.803 1482.83 198.187L1324.62 197.811C1324.62 214.356 1340.37 233.156 1372.61 233.156C1393.23 233.156 1405.97 227.516 1409.72 222.252H1478.7C1473.08 241.804 1442.71 282.038 1378.23 282.038ZM1324.62 163.218H1412.35C1412.35 141.41 1396.23 126.369 1369.99 126.369C1343.37 126.369 1324.62 143.29 1324.62 163.218Z" fill="white"/>
<path d="M1517.33 276.021V224.884H1569.06V276.021H1517.33Z" fill="white"/>
</g>
<defs>
<filter id="filter0_f_3074_551" x="0.0644531" y="0.0375977" width="1572" height="285" filterUnits="userSpaceOnUse" color-interpolation-filters="sRGB">
<feFlood flood-opacity="0" result="BackgroundImageFix"/>
<feBlend mode="normal" in="SourceGraphic" in2="BackgroundImageFix" result="shape"/>
<feGaussianBlur stdDeviation="1.5" result="effect1_foregroundBlur_3074_551"/>
</filter>
</defs>
</svg>
